<svg width="26" height="6" viewBox="0 0 26 6" fill="none" xmlns="http://www.w3.org/2000/svg">
<path d="M22.8508 5.5C21.383 5.5 20.1904 4.37891 20.1904 3.00104C20.1904 1.62317 21.383 0.5 22.8508 0.5C24.3187 0.5 25.5113 1.62317 25.5113 3.00104C25.5113 4.37891 24.3187 5.5 22.8508 5.5Z" fill="#9B9B9B"/>
<path d="M12.9043 5.5C11.4364 5.5 10.2439 4.37891 10.2439 3.00104C10.2439 1.62317 11.4364 0.5 12.9043 0.5C14.3722 0.5 15.5647 1.62317 15.5647 3.00104C15.5647 4.37891 14.3722 5.5 12.9043 5.5Z" fill="#9B9B9B"/>
<path d="M2.9568 5.5C1.48891 5.5 0.296387 4.37891 0.296387 3.00104C0.296387 1.62317 1.48891 0.5 2.9568 0.5C4.4247 0.5 5.61722 1.62317 5.61722 3.00104C5.61722 4.37891 4.4247 5.5 2.9568 5.5Z" fill="#9B9B9B"/>
</svg>
