<svg width="37" height="36" viewBox="0 0 37 36" fill="none" xmlns="http://www.w3.org/2000/svg">
<path fill-rule="evenodd" clip-rule="evenodd" d="M35.7029 26.2858L35.8428 10.3932C35.8916 4.85491 31.9671 1.34849 26.3701 1.30006L11.2672 1.16939C5.67021 1.12096 1.68474 4.54061 1.63583 10.0972L1.49596 25.988C1.44705 31.5446 5.37169 35.0363 10.9687 35.0848L26.0715 35.2154C31.6685 35.2639 35.654 31.8405 35.7029 26.2858Z" stroke="#6B6B6B" stroke-width="1.5" stroke-linecap="round" stroke-linejoin="round"/>
<path d="M16.5281 9.96039C16.5388 8.74861 17.5403 7.77273 18.7607 7.78329C19.9811 7.79385 20.9672 8.78692 20.9565 9.99871C20.9458 11.2105 19.9424 12.1864 18.722 12.1758C17.5017 12.1652 16.5174 11.1722 16.5281 9.96039Z" fill="#F5F5F5"/>
<path d="M16.4558 18.1723C16.4665 16.9606 17.4681 15.9847 18.6884 15.9953C19.9088 16.0058 20.8949 16.9989 20.8842 18.2107C20.8736 19.4225 19.8701 20.3983 18.6498 20.3877C17.4294 20.3772 16.4452 19.3841 16.4558 18.1723Z" fill="#F5F5F5"/>
<path d="M16.3836 26.3835C16.3942 25.1718 17.3958 24.1959 18.6162 24.2064C19.8365 24.217 20.8226 25.2101 20.812 26.4219C20.8013 27.6336 19.7979 28.6095 18.5775 28.5989C17.3572 28.5884 16.3729 27.5953 16.3836 26.3835Z" fill="#F5F5F5"/>
</svg>
